<?xml version="1.0" encoding="UTF-8"?>
<svg width="1920" height="1080" viewBox="0 0 1920 1080" fill="none" xmlns="http://www.w3.org/2000/svg">
  <defs>
    <linearGradient id="bgGradient" x1="0" y1="0" x2="1920" y2="1080" gradientUnits="userSpaceOnUse">
      <stop offset="0%" stop-color="#020617"/>
      <stop offset="25%" stop-color="#071126"/>
      <stop offset="55%" stop-color="#081B34"/>
      <stop offset="100%" stop-color="#030B18"/>
    </linearGradient>

    <radialGradient id="glowLeft" cx="0" cy="0" r="1" gradientUnits="userSpaceOnUse" gradientTransform="translate(350 820) rotate(25) scale(820 680)">
      <stop offset="0%" stop-color="#7C3AED" stop-opacity="0.34"/>
      <stop offset="45%" stop-color="#2563EB" stop-opacity="0.14"/>
      <stop offset="100%" stop-color="#000000" stop-opacity="0"/>
    </radialGradient>

    <radialGradient id="glowRight" cx="0" cy="0" r="1" gradientUnits="userSpaceOnUse" gradientTransform="translate(1550 270) rotate(-20) scale(760 620)">
      <stop offset="0%" stop-color="#06B6D4" stop-opacity="0.30"/>
      <stop offset="40%" stop-color="#38BDF8" stop-opacity="0.12"/>
      <stop offset="100%" stop-color="#000000" stop-opacity="0"/>
    </radialGradient>

    <radialGradient id="coreGlow" cx="0" cy="0" r="1" gradientUnits="userSpaceOnUse" gradientTransform="translate(980 510) rotate(90) scale(260 260)">
      <stop offset="0%" stop-color="#67E8F9" stop-opacity="0.75"/>
      <stop offset="45%" stop-color="#60A5FA" stop-opacity="0.24"/>
      <stop offset="100%" stop-color="#000000" stop-opacity="0"/>
    </radialGradient>

    <linearGradient id="cyanStroke" x1="700" y1="200" x2="1400" y2="850" gradientUnits="userSpaceOnUse">
      <stop offset="0%" stop-color="#6EE7F9"/>
      <stop offset="45%" stop-color="#38BDF8"/>
      <stop offset="100%" stop-color="#A78BFA"/>
    </linearGradient>

    <linearGradient id="violetStroke" x1="350" y1="930" x2="1180" y2="320" gradientUnits="userSpaceOnUse">
      <stop offset="0%" stop-color="#C084FC"/>
      <stop offset="50%" stop-color="#8B5CF6"/>
      <stop offset="100%" stop-color="#22D3EE"/>
    </linearGradient>

    <linearGradient id="titleGradient" x1="160" y1="845" x2="620" y2="920" gradientUnits="userSpaceOnUse">
      <stop offset="0%" stop-color="#F8FAFC"/>
      <stop offset="35%" stop-color="#C4B5FD"/>
      <stop offset="72%" stop-color="#60A5FA"/>
      <stop offset="100%" stop-color="#67E8F9"/>
    </linearGradient>

    <linearGradient id="smallTextGradient" x1="160" y1="960" x2="700" y2="960" gradientUnits="userSpaceOnUse">
      <stop offset="0%" stop-color="#CBD5E1"/>
      <stop offset="100%" stop-color="#7DD3FC"/>
    </linearGradient>

    <linearGradient id="axonLogoGradient" x1="0%" y1="0%" x2="100%" y2="100%">
      <stop offset="0%" stop-color="#6be7f4"/>
      <stop offset="50%" stop-color="#75abee"/>
      <stop offset="100%" stop-color="#872cc8"/>
    </linearGradient>

    <filter id="blurLarge" x="-20%" y="-20%" width="140%" height="140%">
      <feGaussianBlur stdDeviation="60"/>
    </filter>

    <filter id="blurSoft" x="-20%" y="-20%" width="140%" height="140%">
      <feGaussianBlur stdDeviation="20"/>
    </filter>

    <filter id="glow" x="-40%" y="-40%" width="180%" height="180%">
      <feGaussianBlur stdDeviation="5" result="b"/>
      <feMerge>
        <feMergeNode in="b"/>
        <feMergeNode in="SourceGraphic"/>
      </feMerge>
    </filter>

    <filter id="textGlow" x="-30%" y="-30%" width="160%" height="160%">
      <feGaussianBlur stdDeviation="9" result="b"/>
      <feColorMatrix in="b" type="matrix"
        values="1 0 0 0 0
                0 1 0 0 0
                0 0 1 0 0
                0 0 0 0.65 0"/>
      <feMerge>
        <feMergeNode/>
        <feMergeNode in="SourceGraphic"/>
      </feMerge>
    </filter>

    <filter id="axonLogoGlow" x="-40%" y="-40%" width="180%" height="180%">
      <feGaussianBlur stdDeviation="5" result="blur"/>
      <feMerge>
        <feMergeNode in="blur"/>
        <feMergeNode in="SourceGraphic"/>
      </feMerge>
    </filter>

    <pattern id="grid" width="48" height="48" patternUnits="userSpaceOnUse">
      <path d="M48 0H0V48" stroke="#60A5FA" stroke-opacity="0.08" stroke-width="1"/>
    </pattern>

    <pattern id="microDots" width="24" height="24" patternUnits="userSpaceOnUse">
      <circle cx="1.5" cy="1.5" r="1" fill="#93C5FD" fill-opacity="0.10"/>
    </pattern>

    <symbol id="hexNode" viewBox="-20 -18 40 36">
      <path d="M-10 -17L10 -17L20 0L10 17L-10 17L-20 0Z" fill="none" stroke="url(#cyanStroke)" stroke-width="1.2" opacity="0.75"/>
    </symbol>
  </defs>

  <rect width="1920" height="1080" fill="url(#bgGradient)"/>
  <rect width="1920" height="1080" fill="url(#grid)"/>
  <rect width="1920" height="1080" fill="url(#microDots)" opacity="0.45"/>

  <ellipse cx="350" cy="820" rx="560" ry="430" fill="url(#glowLeft)" filter="url(#blurLarge)"/>
  <ellipse cx="1550" cy="270" rx="500" ry="400" fill="url(#glowRight)" filter="url(#blurLarge)"/>
  <circle cx="980" cy="510" r="215" fill="url(#coreGlow)" filter="url(#blurSoft)"/>

  <line x1="980" y1="0" x2="980" y2="1080" stroke="url(#cyanStroke)" stroke-opacity="0.10" stroke-width="1"/>

  <g opacity="0.55">
    <ellipse cx="1010" cy="505" rx="360" ry="155" transform="rotate(-13 1010 505)" stroke="url(#cyanStroke)" stroke-width="1.5"/>
    <ellipse cx="1000" cy="520" rx="250" ry="95" transform="rotate(19 1000 520)" stroke="url(#violetStroke)" stroke-width="1.2"/>
    <ellipse cx="1000" cy="520" rx="460" ry="210" transform="rotate(8 1000 520)" stroke="#38BDF8" stroke-opacity="0.16" stroke-width="1"/>
  </g>

  <g opacity="0.92">
    <path d="M-100 785C160 635 265 940 545 842C700 788 760 635 896 610C1043 583 1144 686 1290 650C1468 607 1520 470 1720 468C1836 466 1902 503 2020 570"
          stroke="url(#violetStroke)" stroke-width="3.2" stroke-linecap="round" filter="url(#glow)"/>
    <path d="M-100 370C153 308 246 538 479 494C668 458 731 283 891 242C1072 196 1192 309 1351 347C1545 394 1664 319 2020 145"
          stroke="url(#cyanStroke)" stroke-width="2.8" stroke-linecap="round" stroke-opacity="0.9" filter="url(#glow)"/>
    <path d="M90 920C305 862 451 960 664 873C818 811 903 682 1028 650C1180 612 1294 676 1420 632C1579 577 1662 463 1845 405"
          stroke="#A78BFA" stroke-opacity="0.38" stroke-width="1.6" stroke-linecap="round"/>
    <path d="M160 230C339 197 466 304 624 284C789 263 898 141 1067 143C1269 145 1383 289 1550 292C1654 294 1755 246 1880 190"
          stroke="#67E8F9" stroke-opacity="0.34" stroke-width="1.6" stroke-linecap="round"/>
  </g>

  <g filter="url(#glow)">
    <circle cx="242" cy="347" r="5" fill="#A5F3FC"/>
    <circle cx="470" cy="491" r="4.5" fill="#93C5FD"/>
    <circle cx="724" cy="291" r="5" fill="#67E8F9"/>
    <circle cx="1010" cy="229" r="6" fill="#E9D5FF"/>
    <circle cx="1322" cy="340" r="5" fill="#60A5FA"/>
    <circle cx="1654" cy="302" r="4.5" fill="#67E8F9"/>
    <circle cx="186" cy="717" r="4.5" fill="#C4B5FD"/>
    <circle cx="531" cy="842" r="5" fill="#93C5FD"/>
    <circle cx="885" cy="617" r="5.5" fill="#67E8F9"/>
    <circle cx="1147" cy="661" r="4.5" fill="#E9D5FF"/>
    <circle cx="1422" cy="612" r="5" fill="#38BDF8"/>
    <circle cx="1768" cy="476" r="4.5" fill="#C4B5FD"/>
    <circle cx="1265" cy="615" r="5" fill="#67E8F9"/>
    <circle cx="1201" cy="411" r="4.5" fill="#A78BFA"/>
    <circle cx="895" cy="395" r="4.5" fill="#93C5FD"/>
    <circle cx="826" cy="592" r="4.5" fill="#67E8F9"/>
  </g>

  <g opacity="0.55">
    <use href="#hexNode" x="1410" y="230" width="58" height="52"/>
    <use href="#hexNode" x="1460" y="270" width="58" height="52"/>
    <use href="#hexNode" x="1510" y="230" width="58" height="52"/>
    <use href="#hexNode" x="1560" y="270" width="58" height="52"/>
    <use href="#hexNode" x="1510" y="310" width="58" height="52"/>
    <use href="#hexNode" x="250" y="250" width="48" height="44" opacity="0.65"/>
    <use href="#hexNode" x="300" y="290" width="48" height="44" opacity="0.55"/>
    <use href="#hexNode" x="350" y="250" width="48" height="44" opacity="0.65"/>
  </g>

  <g opacity="0.22">
    <path d="M1180 770C1225 745 1270 710 1315 690C1360 670 1405 655 1450 625C1495 595 1540 555 1585 530C1630 505 1675 495 1720 468"
          stroke="#7DD3FC" stroke-width="2"/>
    <path d="M1180 820C1225 795 1270 760 1315 740C1360 720 1405 705 1450 675C1495 645 1540 605 1585 580C1630 555 1675 545 1720 518"
          stroke="#C084FC" stroke-width="2"/>
    <line x1="1223" y1="746" x2="1223" y2="796" stroke="#A5F3FC" stroke-opacity="0.5"/>
    <line x1="1310" y1="690" x2="1310" y2="740" stroke="#A5F3FC" stroke-opacity="0.5"/>
    <line x1="1400" y1="656" x2="1400" y2="706" stroke="#A5F3FC" stroke-opacity="0.5"/>
    <line x1="1490" y1="596" x2="1490" y2="646" stroke="#A5F3FC" stroke-opacity="0.5"/>
    <line x1="1583" y1="531" x2="1583" y2="581" stroke="#A5F3FC" stroke-opacity="0.5"/>
    <line x1="1670" y1="495" x2="1670" y2="545" stroke="#A5F3FC" stroke-opacity="0.5"/>
  </g>

  <g filter="url(#glow)">
    <circle cx="980" cy="510" r="7" fill="#FFFFFF"/>
    <circle cx="980" cy="510" r="18" fill="#67E8F9" fill-opacity="0.28"/>
    <circle cx="980" cy="510" r="40" fill="#60A5FA" fill-opacity="0.08"/>
  </g>

  <g opacity="0.82">
    <circle cx="161" cy="113" r="1.6" fill="#BAE6FD"/>
    <circle cx="287" cy="154" r="1.2" fill="#E9D5FF"/>
    <circle cx="420" cy="84" r="1.4" fill="#7DD3FC"/>
    <circle cx="690" cy="132" r="1.2" fill="#C4B5FD"/>
    <circle cx="1101" cy="92" r="1.5" fill="#BAE6FD"/>
    <circle cx="1387" cy="122" r="1.3" fill="#7DD3FC"/>
    <circle cx="1670" cy="88" r="1.6" fill="#E9D5FF"/>
    <circle cx="1827" cy="155" r="1.2" fill="#BAE6FD"/>
    <circle cx="1540" cy="910" r="1.5" fill="#7DD3FC"/>
    <circle cx="1625" cy="842" r="1.2" fill="#E9D5FF"/>
    <circle cx="1738" cy="788" r="1.6" fill="#BAE6FD"/>
    <circle cx="1810" cy="880" r="1.1" fill="#7DD3FC"/>
  </g>

  <g opacity="0.28">
    <rect x="120" y="88" width="280" height="96" rx="18" fill="#0B1730" stroke="#38BDF8" stroke-opacity="0.25"/>
    <line x1="150" y1="121" x2="373" y2="121" stroke="#93C5FD" stroke-opacity="0.18"/>
    <line x1="150" y1="144" x2="326" y2="144" stroke="#C4B5FD" stroke-opacity="0.16"/>
    <line x1="150" y1="166" x2="350" y2="166" stroke="#67E8F9" stroke-opacity="0.14"/>
    <circle cx="366" cy="144" r="5" fill="#22D3EE" fill-opacity="0.55"/>
  </g>

  <g transform="translate(1688 56) scale(0.58)" filter="url(#axonLogoGlow)">
    <path d="M 211.00 201.50 L 155.00 201.50 L 128.00 169.50 L 101.00 201.50 L 44.00 201.50 L 33.00 190.00 L 88.50 122.00 L 40.50 64.00 L 50.00 53.50 L 114.00 53.50 L 201.50 161.00 L 222.00 186.00 L 211.00 201.50 Z"
          fill="url(#axonLogoGradient)"
          stroke="#47476b"
          stroke-opacity="0.9"
          stroke-width="2"
          stroke-linejoin="round"/>
    <path d="M 173.00 108.50 L 135.50 65.00 L 135.50 61.00 L 143.00 53.50 L 201.00 53.50 L 210.00 64.00 L 205.50 70.00 L 173.00 108.50 Z"
          fill="url(#axonLogoGradient)"
          stroke="#47476b"
          stroke-opacity="0.9"
          stroke-width="2"
          stroke-linejoin="round"/>
  </g>

  <g>
    <text x="160" y="860"
          font-family="Inter, Segoe UI, Helvetica, Arial, sans-serif"
          font-size="96"
          font-weight="800"
          letter-spacing="1"
          fill="url(#titleGradient)"
          filter="url(#textGlow)">
      AxonOS
    </text>

    <text x="164" y="916"
          font-family="Inter, Segoe UI, Helvetica, Arial, sans-serif"
          font-size="30"
          font-weight="600"
          letter-spacing="4"
          fill="#A5F3FC"
          opacity="0.92">
      SCIENCE IN MOTION - COMPUTE IN COLOR
    </text>

    <text x="164" y="970"
          font-family="Inter, Segoe UI, Helvetica, Arial, sans-serif"
          font-size="24"
          font-weight="400"
          letter-spacing="0.5"
          fill="url(#smallTextGradient)"
          opacity="0.92">
      A browser-born workstation inspired by neural pathways, celestial orbits,
    </text>

    <text x="164" y="1004"
          font-family="Inter, Segoe UI, Helvetica, Arial, sans-serif"
          font-size="24"
          font-weight="400"
          letter-spacing="0.5"
          fill="url(#smallTextGradient)"
          opacity="0.92">
      biomolecular rhythms, and the luminous geometry of discovery.
    </text>
  </g>

  <rect x="16" y="16" width="1888" height="1048" rx="28"
        stroke="url(#cyanStroke)" stroke-opacity="0.16" stroke-width="1.2"/>
</svg>
